<?xml version="1.0" encoding="UTF-8"?><svg id="uuid-b552dcfe-8ba9-47b3-8fa9-46664db4d6dd" xmlns="http://www.w3.org/2000/svg" width="40" height="40" viewBox="0 0 40 40"><g id="uuid-18e844d5-2d3c-4bbd-afa5-ccd79c234405"><path id="uuid-c818fef7-6829-4165-a3ea-9d09f43956c2" d="m3.24,32.85L19.44,7.15h10.06v3.58l-13.97,22.12" style="fill:#f9bc15; stroke-width:0px;"/><path id="uuid-f337fecb-274f-4527-8fef-745d9e1239c3" d="m29.5,32.85h-10.06V7.15h10.06v25.7Z" style="fill:#4070b7; stroke-width:0px;"/><path id="uuid-5546ebf5-eee6-4782-b09b-8dddef0fdf9c" d="m36.76,25.59c0,4.01-3.25,7.26-7.26,7.26v-14.52c4.01,0,7.26,3.25,7.26,7.26Z" style="fill:#36a852; stroke-width:0px;"/><path id="uuid-6a6d9326-e7fb-4047-ad8c-ecd745765900" d="m29.5,32.85c-4.01,0-7.26-3.25-7.26-7.26s3.25-7.26,7.26-7.26v14.52Z" style="fill:#106634; stroke-width:0px;"/><path id="uuid-fe3cf848-5aec-4010-bf68-4698927d270a" d="m35.08,12.74c0,3.08-2.5,5.59-5.59,5.59V7.15c3.09,0,5.59,2.5,5.59,5.59Z" style="fill:#4070b7; stroke-width:0px;"/><path id="uuid-ddab5159-18b6-482c-81c2-3fd28cc70b2c" d="m29.5,18.32c-3.09,0-5.59-2.5-5.59-5.59s2.5-5.59,5.59-5.59v11.17Z" style="fill:#1d51a3; stroke-width:0px;"/><path id="uuid-cace6590-b987-4be8-a666-c9502e86ed84" d="m3.8,12.18c0-2.78,2.25-5.03,5.03-5.03s5.03,2.25,5.03,5.03-2.25,5.03-5.03,5.03-5.03-2.25-5.03-5.03Z" style="fill:#ea4535; stroke-width:0px;"/></g></svg>