<?xml version="1.0" encoding="UTF-8"?><svg id="uuid-30223ad1-db18-41dd-bfca-40539e7aae5f" xmlns="http://www.w3.org/2000/svg" width="2047.05" height="1101.88" viewBox="0 0 2047.05 1101.88"><path d="m979.07.7c-4.11,5.81-8.04,11.76-12.35,17.41-31.96,41.88-61.43,85.43-87.57,131.17-42.73,74.75-75.08,153.66-94.56,237.66-7.48,32.26-13.55,64.8-16.63,97.8-2.44,26.13-4.78,52.3-5.86,78.51-1.15,27.92-1.17,55.9-.88,83.85.19,18.6,1.82,37.18,2.71,55.77.13,2.68,1.13,3.7,3.85,4.01,51.36,5.97,94.83,27.87,130.15,65.46,16.81,17.89,29.73,38.37,32.41,63.39,2.92,27.39.17,53.93-16.83,77.16-12.12,16.56-29.14,24.21-48.96,26.71-40.77,5.15-76.21-7.79-108.11-32.18-25.09-19.18-44.73-43.16-60.27-70.53-4.35-7.67-8.48-15.49-12.2-23.48-2.04-4.38-4.59-5.29-9.06-4.25-18.7,4.36-36.27,11.68-52.44,21.72-31.97,19.84-63.45,40.47-95.07,60.85-30.08,19.39-61.19,36.79-95.9,46.39-37.2,10.29-74.62,12.31-111.3-2.38-25.71-10.3-44.61-28.54-58.01-52.66-12.24-22.04-18.42-45.83-21.34-70.71-2.97-25.26-1.57-50.45-.03-75.68,3.74-61.2,15.49-121.29,24.83-181.73,5.36-34.66,10.61-69.35,15.1-104.12,3.95-30.54,5.21-61.32,4.19-92.11-.46-13.96-4.46-26.88-14.87-37.07-6.88-6.73-15.21-9.86-24.7-10.54-18.07-1.3-34.16,4.6-49.27,13.67-21.36,12.81-39.1,29.83-55.26,48.58-35.2,40.82-61.75,87.11-85.07,135.34-22.15,45.81-39.65,93.44-53.89,142.27-.64,2.2-.87,4.59-.87,6.89-.03,147.86-.02,295.72,0,443.58-.33-.17-.94-.32-.96-.5-.08-1.33-.04-2.66-.04-3.99V.45c.35.05.7.1,1.05.15-.02.67-.05,1.33-.05,2,0,123.36,0,246.73,0,370.09,0,1.41.2,2.81.38,5.11,1.3-1.57,2.07-2.37,2.69-3.27,24.9-36.38,52.45-70.45,86.21-99.15,18.57-15.79,38.16-30.12,59.71-41.61,27.22-14.52,56.16-23.3,87.02-25.74,17.86-1.42,35.64-1.7,53.09,2.83,33.56,8.72,56.74,30.49,73.14,60.01,17.87,32.16,24.85,67.33,25.6,103.64.5,24.24-.61,48.55-1.9,72.78-1.02,19.22-3.02,38.42-5.3,57.55-3.2,26.72-6.98,53.38-10.68,80.04-4.09,29.46-8.63,58.87-12.45,88.36-2.65,20.42-4.59,40.94-6.48,61.44-.87,9.42-.72,18.93-1.28,28.39-.95,16.22.07,32.24,5.22,47.74,2.91,8.76,7.6,16.26,16.6,20.21,13.02,5.71,26.07,4.71,38.91-.17,24.08-9.15,46.2-22.18,68.22-35.32,38.45-22.96,76.43-46.75,117.34-65.31,18.24-8.27,36.69-15.93,56.47-19.68,4.67-.88,5.87-2.9,5.55-7.36-1.16-16.24-2.48-32.49-2.88-48.75-.52-21.43-.5-42.88-.19-64.31.26-18.11.56-36.27,2.08-54.3,2.46-29.12,5.14-58.26,9.14-87.2,7.14-51.69,19.62-102.25,35.53-151.93,19.18-59.92,43.65-117.58,73.88-172.81,19.36-35.38,40.52-69.6,63.71-102.59,4.75-6.76,9.09-13.81,13.62-20.73,33.9-.03,67.8-.08,101.69-.08,7.8,0,15.61.15,23.41.23Zm-202.71,797.82c.1,2.09.07,2.6.17,3.07.22,1.14.42,2.3.78,3.4,8.13,25.19,24.16,44.06,46.64,57.6,8.35,5.04,17.57,5.72,27.02,3.81,8.11-1.64,12.4-7.88,11.74-15.96-1.24-15.13-8.99-26.09-21.17-34.4-14.69-10.03-31.36-14.26-48.72-16.3-5.32-.62-10.7-.81-16.46-1.23Z" style="fill:#fff; stroke-width:0px;"/><path d="m961.9,20v1061.88H19.52V20h942.37M981.9,0H-.48v1101.88h982.37V0h0Z" style="fill:#fff; stroke-width:0px;"/><path d="m2047.02,827.89h-332.07v-427.51h87.36c.97,114.3-.97,228.46,0,342.86h244.74V0h-980.53v743.89l131.52-.3c129.62-.3,131.65-.33,139.79-2.22,26.3-6.11,37.47-19.18,35.95-42.06-1.21-18.22-8.22-31.33-23.83-44.61-26.34-21.99-45.77-28.35-70.53-52.36-18.83-18.5-30.96-38.47-37.33-61.38-5.9-21.41-2.72-47.43,4.12-72,6.2-17.9,13.64-29.7,27.25-43.24,36.67-35.88,89.95-41.33,143.61-31.52,16.73,3.46,39.43,9.44,39.03,11.55l-14.74,77.53c-.17.88-2.14.32-4.67-.97-25.95-13.23-63.79-14.05-82.95-1.8-15.11,9.94-18.87,24.92-16.4,43.34,3.69,17.75,14.74,28.14,58.34,54.88,40.66,24.91,64.47,53.9,73.47,89.39,8.22,32.42,3.31,69.35-12.86,96.88-16.54,28.12-43.83,47.55-79.42,56.51-20.07,5.06-18.7,5.02-170.35,5.02h-139.95v137.67l-.08,137.27h980.53v-273.55Zm-420.89-1.66v1.63h-83.54v-427.51h83.54c.19,161.13.58,275.99,0,425.88Z" style="fill:#fff; stroke-width:0px;"/></svg>