<?xml version="1.0" encoding="UTF-8"?><svg id="uuid-f9abdf97-f4fb-441e-9fcc-f707f0887bab" xmlns="http://www.w3.org/2000/svg" width="2047.05" height="1101.88" viewBox="0 0 2047.05 1101.88"><rect x="1066.52" width="980.5" height="1101.88" style="fill:#fff; stroke-width:0px;"/><path d="m1066.57,964.16v-137.67h139.95c151.65,0,150.28.04,170.35-5.02,35.59-8.97,62.88-28.39,79.42-56.51,16.18-27.53,21.08-64.45,12.86-96.88-9.01-35.5-32.82-64.49-73.47-89.39-43.6-26.73-54.65-37.13-58.34-54.88-2.47-18.42,1.3-33.4,16.4-43.34,19.17-12.25,57-11.43,82.95,1.8,2.53,1.29,4.5,1.85,4.67.97l14.74-77.53c.4-2.11-22.29-8.09-39.03-11.55-53.67-9.81-106.94-4.36-143.61,31.52-13.61,13.54-21.05,25.34-27.25,43.24-6.84,24.58-10.02,50.6-4.12,72,6.36,22.91,18.5,42.88,37.33,61.38,24.76,24.01,44.19,30.37,70.53,52.36,15.62,13.28,22.63,26.4,23.83,44.61,1.52,22.89-9.65,35.95-35.95,42.06-8.14,1.89-10.17,1.92-139.79,2.22l-131.52.3V0h980.53v743.24h-244.74c-.97-114.39.97-228.56,0-342.86h-87.36v427.51h332.07v273.99h-980.53l.08-137.72Zm559.55-137.93c.58-149.89.19-264.74,0-425.88h-83.54v427.51h83.54v-1.63Z" style="fill:#005cb9; stroke-width:0px;"/><path d="m981,1101.44H1.01c0-147.86-.02-295.72,0-443.58,0-2.3.23-4.69.87-6.89,14.24-48.83,31.73-96.46,53.89-142.27,23.32-48.23,49.87-94.52,85.07-135.34,16.16-18.74,33.9-35.76,55.26-48.58,15.11-9.07,31.2-14.96,49.27-13.67,9.49.68,17.82,3.81,24.7,10.54,10.42,10.18,14.41,23.11,14.87,37.07,1.02,30.79-.24,61.57-4.19,92.11-4.5,34.78-9.74,69.46-15.1,104.12-9.34,60.43-21.09,120.53-24.83,181.73-1.54,25.23-2.94,50.43.03,75.68,2.92,24.88,9.1,48.67,21.34,70.71,13.39,24.12,32.3,42.36,58.01,52.66,36.68,14.69,74.1,12.67,111.3,2.38,34.71-9.6,65.82-27.01,95.9-46.39,31.63-20.38,63.11-41.01,95.07-60.85,16.17-10.03,33.74-17.36,52.44-21.72,4.46-1.04,7.02-.13,9.06,4.25,3.71,7.99,7.84,15.81,12.2,23.48,15.54,27.37,35.18,51.34,60.27,70.53,31.9,24.39,67.34,37.33,108.11,32.18,19.82-2.5,36.83-10.15,48.96-26.71,17-23.23,19.75-49.77,16.83-77.16-2.67-25.02-15.6-45.5-32.41-63.39-35.32-37.59-78.79-59.5-130.15-65.46-2.72-.32-3.72-1.34-3.85-4.01-.89-18.59-2.52-37.17-2.71-55.77-.29-27.95-.26-55.93.88-83.85,1.08-26.21,3.42-52.38,5.86-78.51,3.08-32.99,9.14-65.53,16.63-97.8,19.48-83.99,51.83-162.91,94.56-237.66,26.14-45.74,55.61-89.29,87.57-131.17,4.31-5.65,8.25-11.6,12.35-17.41,4.49.6,2.28,4.12,2.28,6.12.12,362.9.11,725.8.09,1088.7,0,1.97-.29,3.95-.45,5.92Z" style="fill:#00a6e0; stroke-width:0px;"/><path d="m979.07.7c-4.11,5.81-8.04,11.76-12.35,17.41-31.96,41.88-61.43,85.43-87.57,131.17-42.73,74.75-75.08,153.66-94.56,237.66-7.48,32.26-13.55,64.8-16.63,97.8-2.44,26.13-4.78,52.3-5.86,78.51-1.15,27.92-1.17,55.9-.88,83.85.19,18.6,1.82,37.18,2.71,55.77.13,2.68,1.13,3.7,3.85,4.01,51.36,5.97,94.83,27.87,130.15,65.46,16.81,17.89,29.73,38.37,32.41,63.39,2.92,27.39.17,53.93-16.83,77.16-12.12,16.56-29.14,24.21-48.96,26.71-40.77,5.15-76.21-7.79-108.11-32.18-25.09-19.18-44.73-43.16-60.27-70.53-4.35-7.67-8.48-15.49-12.2-23.48-2.04-4.38-4.59-5.29-9.06-4.25-18.7,4.36-36.27,11.68-52.44,21.72-31.97,19.84-63.45,40.47-95.07,60.85-30.08,19.39-61.19,36.79-95.9,46.39-37.2,10.29-74.62,12.31-111.3-2.38-25.71-10.3-44.61-28.54-58.01-52.66-12.24-22.04-18.42-45.83-21.34-70.71-2.97-25.26-1.57-50.45-.03-75.68,3.74-61.2,15.49-121.29,24.83-181.73,5.36-34.66,10.61-69.35,15.1-104.12,3.95-30.54,5.21-61.32,4.19-92.11-.46-13.96-4.46-26.88-14.87-37.07-6.88-6.73-15.21-9.86-24.7-10.54-18.07-1.3-34.16,4.6-49.27,13.67-21.36,12.81-39.1,29.83-55.26,48.58-35.2,40.82-61.75,87.11-85.07,135.34-22.15,45.81-39.65,93.44-53.89,142.27-.64,2.2-.87,4.59-.87,6.89-.03,147.86-.02,295.72,0,443.58-.33-.17-.94-.32-.96-.5-.08-1.33-.04-2.66-.04-3.99V.45c.35.05.7.1,1.05.15-.02.67-.05,1.33-.05,2,0,123.36,0,246.73,0,370.09,0,1.41.2,2.81.38,5.11,1.3-1.57,2.07-2.37,2.69-3.27,24.9-36.38,52.45-70.45,86.21-99.15,18.57-15.79,38.16-30.12,59.71-41.61,27.22-14.52,56.16-23.3,87.02-25.74,17.86-1.42,35.64-1.7,53.09,2.83,33.56,8.72,56.74,30.49,73.14,60.01,17.87,32.16,24.85,67.33,25.6,103.64.5,24.24-.61,48.55-1.9,72.78-1.02,19.22-3.02,38.42-5.3,57.55-3.2,26.72-6.98,53.38-10.68,80.04-4.09,29.46-8.63,58.87-12.45,88.36-2.65,20.42-4.59,40.94-6.48,61.44-.87,9.42-.72,18.93-1.28,28.39-.95,16.22.07,32.24,5.22,47.74,2.91,8.76,7.6,16.26,16.6,20.21,13.02,5.71,26.07,4.71,38.91-.17,24.08-9.15,46.2-22.18,68.22-35.32,38.45-22.96,76.43-46.75,117.34-65.31,18.24-8.27,36.69-15.93,56.47-19.68,4.67-.88,5.87-2.9,5.55-7.36-1.16-16.24-2.48-32.49-2.88-48.75-.52-21.43-.5-42.88-.19-64.31.26-18.11.56-36.27,2.08-54.3,2.46-29.12,5.14-58.26,9.14-87.2,7.14-51.69,19.62-102.25,35.53-151.93,19.18-59.92,43.65-117.58,73.88-172.81,19.36-35.38,40.52-69.6,63.71-102.59,4.75-6.76,9.09-13.81,13.62-20.73,33.9-.03,67.8-.08,101.69-.08,7.8,0,15.61.15,23.41.23Zm-202.71,797.82c.1,2.09.07,2.6.17,3.07.22,1.14.42,2.3.78,3.4,8.13,25.19,24.16,44.06,46.64,57.6,8.35,5.04,17.57,5.72,27.02,3.81,8.11-1.64,12.4-7.88,11.74-15.96-1.24-15.13-8.99-26.09-21.17-34.4-14.69-10.03-31.36-14.26-48.72-16.3-5.32-.62-10.7-.81-16.46-1.23Z" style="fill:#40bce7; stroke-width:0px;"/><path d="m1.06.6c1.5-.05,2.99-.14,4.49-.14,281.47,0,562.95,0,844.42,0,1.33,0,2.66.06,4,.09-4.53,6.92-8.87,13.97-13.62,20.73-23.2,32.99-44.35,67.22-63.71,102.59-30.23,55.23-54.7,112.9-73.88,172.81-15.91,49.68-28.38,100.24-35.53,151.93-4,28.94-6.69,58.08-9.14,87.2-1.52,18.03-1.83,36.19-2.08,54.3-.31,21.43-.33,42.89.19,64.31.39,16.27,1.71,32.51,2.88,48.75.32,4.45-.88,6.47-5.55,7.36-19.78,3.75-38.23,11.41-56.47,19.68-40.91,18.56-78.89,42.35-117.34,65.31-22.01,13.14-44.14,26.17-68.22,35.32-12.85,4.88-25.89,5.88-38.91.17-9-3.94-13.69-11.45-16.6-20.21-5.15-15.51-6.17-31.52-5.22-47.74.55-9.46.41-18.97,1.28-28.39,1.89-20.51,3.83-41.02,6.48-61.44,3.82-29.5,8.37-58.9,12.45-88.36,3.7-26.66,7.48-53.32,10.68-80.04,2.29-19.12,4.28-38.32,5.3-57.55,1.29-24.23,2.4-48.54,1.9-72.78-.75-36.31-7.74-71.48-25.6-103.64-16.4-29.52-39.58-51.28-73.14-60.01-17.44-4.53-35.23-4.25-53.09-2.83-30.86,2.45-59.8,11.23-87.02,25.74-21.54,11.49-41.13,25.82-59.71,41.61-33.76,28.7-61.31,62.77-86.21,99.15-.62.9-1.39,1.69-2.69,3.27-.18-2.3-.38-3.71-.38-5.11-.01-123.36,0-246.73,0-370.09,0-.67.04-1.33.05-2Z" style="fill:#00a6e0; stroke-width:0px;"/><path d="m776.36,798.51c5.76.42,11.13.61,16.46,1.23,17.37,2.03,34.03,6.27,48.72,16.3,12.18,8.31,19.92,19.28,21.17,34.4.66,8.08-3.63,14.32-11.74,15.96-9.45,1.91-18.67,1.23-27.02-3.81-22.47-13.55-38.51-32.42-46.64-57.6-.36-1.1-.56-2.26-.78-3.4-.09-.48-.06-.98-.17-3.07Z" style="fill:#00a6e0; stroke-width:0px;"/></svg>