<?xml version="1.0" encoding="UTF-8"?><svg id="uuid-70ffce36-afd8-4af8-adf0-ef807cc0cc3c" xmlns="http://www.w3.org/2000/svg" width="1200" height="1440" viewBox="0 0 1200 1440"><path d="m10,0H0v10C0,4,4,0,10,0Z" style="fill:#fff; stroke-width:0px;"/><path d="m1190,0c6,0,10,4,10,10V0h-10Z" style="fill:#fff; stroke-width:0px;"/><path d="m323,1350l-83-109c-4-5-8-6-14-6h-28v185h43l-1-115,82,108c5,6,10,7,15,7h28v-185h-43l1,115Z" style="fill:#fff; stroke-width:0px;"/><path d="m80,1422c48,0,80-31,80-77v-110h-43v110c0,25-14,41-37,41s-37-17-37-41v-110H0v110c0,47,32,77,80,77Z" style="fill:#fff; stroke-width:0px;"/><rect x="409" y="1235" width="44" height="185" style="fill:#fff; stroke-width:0px;"/><polygon points="1080 1420 1200 1420 1200 1387 1124 1387 1124 1343 1192 1343 1192 1311 1124 1311 1124 1268 1200 1268 1200 1235 1080 1235 1080 1420" style="fill:#fff; stroke-width:0px;"/><path d="m1190,0H10C4,0,0,4,0,10v1180c0,6,4,10,10,10h1180c6,0,10-4,10-10V10C1200,4,1196,0,1190,0Zm-151,918c0,6-4,9-10,9h-121c-5,0-10-2-12-7l-250-472v240c0,167-100,250-248,248-148-1-251-76-248-248v-377c0-6,2-9,8-9h99c5,0,8,3,8,8v375c0,95,44,149,133,150,89,0,132-53,133-150v-376c0-4,2-7,7-7h134c6,1,8,1,11,7l249,465h1l-3-308c0-5,3-8,9-8h91c6,0,9,3,9,9v451Zm11-573c-4.43,30.72-28.56,54.85-59.28,59.28-38.26,5.52-73.76-21.02-79.28-59.28-5.52-38.26,21.02-73.76,59.28-79.28s73.76,21.02,79.28,59.28v20Z" style="fill:#fff; stroke-width:0px;"/><path d="m953,1235h-72v185h72c57,0,97-38,97-92s-41-93-97-93Zm0,152h-28v-119h28c35,0,53,24,53,60s-19,59-53,59Z" style="fill:#fff; stroke-width:0px;"/><path d="m582,1268c14,0,22,3,36,13,6,2,11,0,13-4l15-19c-16-17-41-25-64-25-57,0-97,39-97,95s36,94,91,94c28,0,52-8,68-29l-17-18c-4-4-8-3-10-2-8,4-11,14-39,14-30,0-49-26-49-59,0-35,21-60,53-60Z" style="fill:#fff; stroke-width:0px;"/><path d="m755,1233c-57,0-96,40-96,95s40,94,96,94,97-40,97-94-41-95-97-95Zm0,154c-34,0-52-24-52-59s17-59,52-60c36,0,53,25,53,60s-18,59-53,59Z" style="fill:#fff; stroke-width:0px;"/></svg>