<?xml version="1.0" encoding="UTF-8"?><svg id="uuid-9f817fc2-e746-45ff-a170-cbe545c6bb33" xmlns="http://www.w3.org/2000/svg" width="1200" height="1440" viewBox="0 0 1200 1440"><path d="m1080,1420h120v-33h-76v-44h68v-32h-68v-43h76v-33h-120m-155,152v-119h28c35,0,53,24,53,60s-19,59-53,59m-72,33h72c57,0,97-38,97-92s-41-93-97-93h-72m-126,152c-34,0-52-24-52-59s17-59,52-60c36,0,53,25,53,60s-18,59-53,59m-109-129c-16-17-41-25-64-25-57,0-97,39-97,95s36,94,91,94c28,0,52-8,68-29l-17-18c-4-4-8-3-10-2-8,4-11,14-39,14-30,0-49-26-49-59,0-35,21-60,53-60,14,0,22,3,36,13,6,2,11,0,13-4m-222,143h44v-185h-44m-211,185h43l-1-115,82,108c5,6,10,7,15,7h28v-185h-43l1,115-83-109c-4-5-8-6-14-6h-28m-81,0v110c0,25-14,41-37,41s-37-17-37-41v-110H0v110c0,47,32,77,80,77s80-31,80-77v-110m595,187c57,0,97-40,97-94s-41-95-97-95-96,40-96,95,40,94,96,94M0,10C0,4,4,0,10,0h1180c6,0,10,4,10,10v1180c0,6-4,10-10,10H10c-6,0-10-4-10-10" style="fill:#55f; stroke-width:0px;"/><path d="m1050,325c-5.52-38.26-41.02-64.8-79.28-59.28-38.26,5.52-64.8,41.02-59.28,79.28,5.52,38.26,41.02,64.8,79.28,59.28,30.72-4.43,54.85-28.56,59.28-59.28m-20,113h-91c-6,0-9,3-9,8l3,308h-1l-249-465c-3-6-5-6-11-7h-134c-5,0-7,3-7,7v376c-1,97-44,150-133,150-89-1-133-55-133-150v-375c0-5-3-8-8-8h-99c-6,0-8,3-8,9v377c-3,172,100,247,248,248,148,2,248-81,248-248v-240l250,472c2,5,7,7,12,7h121c6,0,10-3,10-9v-451c0-6-3-9-9-9" style="fill:#fff; stroke-width:0px;"/></svg>